<?xml version="1.0" encoding="utf-8"?>
<!-- Generator: Adobe Illustrator 23.0.4, SVG Export Plug-In . SVG Version: 6.00 Build 0)  -->
<svg version="1.1" id="Layer_1" xmlns="http://www.w3.org/2000/svg" xmlns:xlink="http://www.w3.org/1999/xlink" x="0px" y="0px"
	 viewBox="0 0 800 228" style="enable-background:new 0 0 800 228;" xml:space="preserve">
<style type="text/css">
	.st0{fill:#FFFFFF;}
	.st1{fill:#A2A9B1;}
	.st2{fill:#C8CCD1;}
	.st3{fill:none;stroke:#222222;stroke-width:2;stroke-miterlimit:10;}
	.st4{fill:#EAECF0;}
	.st5{fill:none;stroke:#A2A9B1;stroke-width:2;stroke-miterlimit:10;}
	.st6{fill:none;stroke:#C8CCD1;stroke-width:2;stroke-miterlimit:10;}
</style>
<g>
	<g>
		<path class="st0" d="M2,227c-0.6,0-1-0.4-1-1V2c0-0.6,0.4-1,1-1h796c0.6,0,1,0.4,1,1v224c0,0.6-0.4,1-1,1H2z"/>
		<path class="st1" d="M798,2v224H2V2H798 M798,0H2C0.9,0,0,0.9,0,2v224c0,1.1,0.9,2,2,2h796c1.1,0,2-0.9,2-2V2
			C800,0.9,799.1,0,798,0L798,0z"/>
	</g>
	<g>
		<g>
			<path class="st2" d="M789,50c0,1.1-0.9,2-2,2H15c-1.1,0-2-0.9-2-2V14c0-1.1,0.9-2,2-2h772c1.1,0,2,0.9,2,2V50z"/>
		</g>
		<line class="st3" x1="290" y1="31" x2="510" y2="31"/>
	</g>
	<g>
		<g>
			<g>
				<path class="st4" d="M206,102c0,1.1-0.9,2-2,2H14c-1.1,0-2-0.9-2-2V66c0-1.1,0.9-2,2-2h190c1.1,0,2,0.9,2,2V102z"/>
			</g>
			<g>
				<path class="st4" d="M206,154c0,1.1-0.9,2-2,2H14c-1.1,0-2-0.9-2-2v-36c0-1.1,0.9-2,2-2h190c1.1,0,2,0.9,2,2V154z"/>
			</g>
			<g>
				<path class="st4" d="M206,210c0,1.1-0.9,2-2,2H14c-1.1,0-2-0.9-2-2v-36c0-1.1,0.9-2,2-2h190c1.1,0,2,0.9,2,2V210z"/>
			</g>
		</g>
	</g>
	<g>
		<g>
			<g>
				<line class="st5" x1="218" y1="127" x2="442" y2="127"/>
			</g>
			<g>
				<line class="st6" x1="448" y1="137" x2="457" y2="117"/>
			</g>
			<g>
				<line class="st5" x1="461.5" y1="127" x2="574.5" y2="127"/>
			</g>
			<g>
				<line class="st6" x1="579.5" y1="137" x2="588.5" y2="117"/>
			</g>
			<g>
				<line class="st5" x1="595" y1="127" x2="775" y2="127"/>
			</g>
			<g>
				<line class="st5" x1="218" y1="145" x2="398" y2="145"/>
			</g>
			<g>
				<line class="st6" x1="403.5" y1="155" x2="412.5" y2="135"/>
			</g>
			<g>
				<line class="st5" x1="418" y1="145" x2="642" y2="145"/>
			</g>
		</g>
	</g>
</g>
<g>
	<g>
		<g>
			<line class="st5" x1="219" y1="75" x2="443" y2="75"/>
		</g>
		<g>
			<line class="st6" x1="449" y1="85" x2="458" y2="65"/>
		</g>
		<g>
			<line class="st5" x1="462.5" y1="75" x2="575.5" y2="75"/>
		</g>
		<g>
			<line class="st6" x1="580.5" y1="85" x2="589.5" y2="65"/>
		</g>
		<g>
			<line class="st5" x1="596" y1="75" x2="776" y2="75"/>
		</g>
		<g>
			<line class="st5" x1="219" y1="93" x2="399" y2="93"/>
		</g>
		<g>
			<line class="st6" x1="404.5" y1="103" x2="413.5" y2="83"/>
		</g>
		<g>
			<line class="st5" x1="419" y1="93" x2="643" y2="93"/>
		</g>
	</g>
</g>
<g>
	<g>
		<g>
			<line class="st5" x1="218" y1="183" x2="442" y2="183"/>
		</g>
		<g>
			<line class="st6" x1="448" y1="193" x2="457" y2="173"/>
		</g>
		<g>
			<line class="st5" x1="461.5" y1="183" x2="574.5" y2="183"/>
		</g>
		<g>
			<line class="st6" x1="579.5" y1="193" x2="588.5" y2="173"/>
		</g>
		<g>
			<line class="st5" x1="595" y1="183" x2="775" y2="183"/>
		</g>
		<g>
			<line class="st5" x1="218" y1="201" x2="398" y2="201"/>
		</g>
		<g>
			<line class="st6" x1="403.5" y1="211" x2="412.5" y2="191"/>
		</g>
		<g>
			<line class="st5" x1="418" y1="201" x2="642" y2="201"/>
		</g>
	</g>
</g>
</svg>
