<?xml version="1.0" encoding="utf-8"?>
<!-- Generator: Adobe Illustrator 23.0.4, SVG Export Plug-In . SVG Version: 6.00 Build 0)  -->
<svg version="1.1" id="Layer_1" xmlns="http://www.w3.org/2000/svg" xmlns:xlink="http://www.w3.org/1999/xlink" x="0px" y="0px"
	 viewBox="0 0 800 228" style="enable-background:new 0 0 800 228;" xml:space="preserve">
<style type="text/css">
	.st0{fill:#FFFFFF;}
	.st1{fill:#A2A9B1;}
	.st2{fill:#CCCCFF;}
	.st3{fill:none;stroke:#545953;stroke-width:2;stroke-miterlimit:10;}
	.st4{fill:#DDDDFF;}
	.st5{fill:none;stroke:#A2A9B1;stroke-width:2;stroke-miterlimit:10;}
	.st6{fill:none;stroke:#C8CCD1;stroke-width:2;stroke-miterlimit:10;}
</style>
<g id="container">
	<path class="st0" d="M2,227c-0.6,0-1-0.4-1-1V2c0-0.6,0.4-1,1-1h796c0.6,0,1,0.4,1,1v224c0,0.6-0.4,1-1,1H2z"/>
	<path class="st1" d="M798,2v224H2V2H798 M798,0H2C0.9,0,0,0.9,0,2v224c0,1.1,0.9,2,2,2h796c1.1,0,2-0.9,2-2V2
		C800,0.9,799.1,0,798,0L798,0z"/>
</g>
<g id="header">
	<g id="nav-header_1_">
		<path class="st2" d="M789,50c0,1.1-0.9,2-2,2H15c-1.1,0-2-0.9-2-2V14c0-1.1,0.9-2,2-2h772c1.1,0,2,0.9,2,2V50z"/>
	</g>
	<line id="nav-header-title" class="st3" x1="290" y1="31" x2="510" y2="31"/>
</g>
<g id="nav-groups_1_">
	<g id="nav-group-containers">
		<g>
			<g id="nav-group_23_">
				<path class="st4" d="M206,102c0,1.1-0.9,2-2,2H14c-1.1,0-2-0.9-2-2V66c0-1.1,0.9-2,2-2h190c1.1,0,2,0.9,2,2V102z"/>
			</g>
			<g id="nav-group_22_">
				<path class="st4" d="M206,154c0,1.1-0.9,2-2,2H14c-1.1,0-2-0.9-2-2v-36c0-1.1,0.9-2,2-2h190c1.1,0,2,0.9,2,2V154z"/>
			</g>
			<g id="nav-group_21_">
				<path class="st4" d="M206,210c0,1.1-0.9,2-2,2H14c-1.1,0-2-0.9-2-2v-36c0-1.1,0.9-2,2-2h190c1.1,0,2,0.9,2,2V210z"/>
			</g>
		</g>
	</g>
	<g id="nav-group-titles">
		<line id="nav-group-title_2_" class="st3" x1="108" y1="84" x2="188" y2="84"/>
		<line id="nav-group-title_1_" class="st3" x1="128" y1="192" x2="188" y2="192"/>
		<line id="nav-group-title" class="st3" x1="88" y1="136" x2="188" y2="136"/>
	</g>
</g>
<g id="links_1_">
	<g id="nav-links_2_">
		<line id="link_14_" class="st5" x1="219" y1="183" x2="443" y2="183"/>
		<line id="separator_8_" class="st6" x1="449.3" y1="172.9" x2="457.7" y2="193.1"/>
		<g id="link_13_">
			<line class="st5" x1="462.5" y1="183" x2="575.5" y2="183"/>
		</g>
		<line id="separator_7_" class="st6" x1="580.8" y1="172.9" x2="589.2" y2="193.1"/>
		<line id="link_12_" class="st5" x1="596" y1="183" x2="776" y2="183"/>
		<line id="link_11_" class="st5" x1="219" y1="201" x2="399" y2="201"/>
		<g id="separator_6_">
			<line class="st6" x1="404.8" y1="190.9" x2="413.2" y2="211.1"/>
		</g>
		<line id="link_10_" class="st5" x1="419" y1="201" x2="643" y2="201"/>
	</g>
	<g id="nav-links_1_">
		<line id="link_9_" class="st5" x1="219" y1="127" x2="443" y2="127"/>
		<line id="separator_5_" class="st6" x1="449.3" y1="116.9" x2="457.7" y2="137.1"/>
		<g id="link_8_">
			<line class="st5" x1="462.5" y1="127" x2="575.5" y2="127"/>
		</g>
		<line id="separator_4_" class="st6" x1="580.8" y1="116.9" x2="589.2" y2="137.1"/>
		<line id="link_7_" class="st5" x1="596" y1="127" x2="776" y2="127"/>
		<line id="link_6_" class="st5" x1="219" y1="145" x2="399" y2="145"/>
		<g id="separator_3_">
			<line class="st6" x1="404.8" y1="134.9" x2="413.2" y2="155.1"/>
		</g>
		<line id="link_5_" class="st5" x1="419" y1="145" x2="643" y2="145"/>
	</g>
	<g id="nav-links">
		<line id="link_4_" class="st5" x1="219" y1="75" x2="443" y2="75"/>
		<line id="separator_2_" class="st6" x1="449.3" y1="64.9" x2="457.7" y2="85.1"/>
		<g id="link_3_">
			<line class="st5" x1="462.5" y1="75" x2="575.5" y2="75"/>
		</g>
		<line id="separator_1_" class="st6" x1="580.8" y1="64.9" x2="589.2" y2="85.1"/>
		<line id="link_2_" class="st5" x1="596" y1="75" x2="776" y2="75"/>
		<line id="link_1_" class="st5" x1="219" y1="93" x2="399" y2="93"/>
		<g id="separator">
			<line class="st6" x1="404.8" y1="82.9" x2="413.2" y2="103.1"/>
		</g>
		<line id="link" class="st5" x1="419" y1="93" x2="643" y2="93"/>
	</g>
</g>
</svg>
